<svg xmlns="http://www.w3.org/2000/svg" xmlns:xlink="http://www.w3.org/1999/xlink" width="294" zoomAndPan="magnify" viewBox="0 0 220.5 48.75" height="65" preserveAspectRatio="xMidYMid meet" version="1.0"><defs><g/><clipPath id="387923334c"><path d="M 8 12.546875 L 40 12.546875 L 40 33 L 8 33 Z M 8 12.546875 " clip-rule="nonzero"/></clipPath><clipPath id="c1f34ab00a"><path d="M 8 12.546875 L 40.234375 12.546875 L 40.234375 33 L 8 33 Z M 8 12.546875 " clip-rule="nonzero"/></clipPath><clipPath id="f4764a1d5c"><path d="M 5.164062 16 L 37 16 L 37 35.675781 L 5.164062 35.675781 Z M 5.164062 16 " clip-rule="nonzero"/></clipPath><clipPath id="5fcd80772d"><path d="M 9.757812 20 L 25 20 L 25 34.414062 L 9.757812 34.414062 Z M 9.757812 20 " clip-rule="nonzero"/></clipPath><clipPath id="e5b2223e50"><path d="M 15 17.25 L 29.90625 17.25 L 29.90625 31 L 15 31 Z M 15 17.25 " clip-rule="nonzero"/></clipPath></defs><g clip-path="url(#387923334c)"><path fill="#fff5f5" d="M 39.796875 15.8125 L 39.796875 29.394531 C 39.796875 30.96875 38.5 32.242188 36.898438 32.242188 L 11.558594 32.242188 C 9.957031 32.242188 8.660156 30.96875 8.660156 29.394531 L 8.660156 15.8125 C 8.660156 14.238281 9.957031 12.960938 11.558594 12.960938 L 36.898438 12.960938 C 38.5 12.960938 39.796875 14.238281 39.796875 15.8125 Z M 39.796875 15.8125 " fill-opacity="1" fill-rule="nonzero"/></g><g clip-path="url(#c1f34ab00a)"><path fill="#01147c" d="M 36.898438 32.660156 C 36.664062 32.660156 36.476562 32.472656 36.476562 32.242188 C 36.476562 32.015625 36.664062 31.828125 36.898438 31.828125 C 37.59375 31.828125 38.234375 31.554688 38.707031 31.058594 C 39.136719 30.605469 39.375 30.015625 39.375 29.394531 L 39.375 15.8125 C 39.375 14.46875 38.265625 13.378906 36.898438 13.378906 L 11.558594 13.378906 C 10.191406 13.378906 9.082031 14.46875 9.082031 15.8125 C 9.082031 16.039062 8.894531 16.226562 8.660156 16.226562 C 8.425781 16.226562 8.238281 16.039062 8.238281 15.8125 C 8.238281 14.011719 9.726562 12.546875 11.558594 12.546875 L 36.898438 12.546875 C 38.730469 12.546875 40.222656 14.011719 40.222656 15.8125 L 40.222656 29.394531 C 40.222656 30.226562 39.902344 31.019531 39.324219 31.625 C 38.699219 32.28125 37.816406 32.660156 36.898438 32.660156 Z M 36.898438 32.660156 " fill-opacity="1" fill-rule="nonzero"/></g><g clip-path="url(#f4764a1d5c)"><path fill="#01147c" d="M 36.316406 19.242188 L 36.316406 32.828125 C 36.316406 34.402344 35.019531 35.675781 33.417969 35.675781 L 8.078125 35.675781 C 6.476562 35.675781 5.179688 34.402344 5.179688 32.828125 L 5.179688 19.242188 C 5.179688 17.671875 6.476562 16.394531 8.078125 16.394531 L 33.417969 16.394531 C 35.019531 16.394531 36.316406 17.671875 36.316406 19.242188 Z M 36.316406 19.242188 " fill-opacity="1" fill-rule="nonzero"/></g><path fill="#fff5f5" d="M 25.230469 26.035156 C 25.230469 26.425781 25.035156 26.8125 24.644531 27.035156 L 18.328125 30.617188 C 17.84375 30.894531 17.28125 30.785156 16.925781 30.449219 C 16.707031 30.246094 16.566406 29.957031 16.566406 29.621094 L 16.566406 22.453125 C 16.566406 21.5625 17.546875 21.007812 18.328125 21.453125 L 24.644531 25.035156 C 24.742188 25.089844 24.828125 25.15625 24.898438 25.230469 C 25.121094 25.453125 25.230469 25.742188 25.230469 26.035156 Z M 25.230469 26.035156 " fill-opacity="1" fill-rule="nonzero"/><g clip-path="url(#5fcd80772d)"><path fill="#ffffff" d="M 13.601562 20.96875 L 9.777344 25.21875 L 11.261719 25.105469 C 11.261719 25.105469 11.101562 27.570312 12.230469 29.660156 C 13.359375 31.75 14.445312 32.40625 15.015625 32.878906 C 15.585938 33.351562 17.445312 34.460938 20.210938 34.578125 C 22.976562 34.691406 24.578125 33.589844 24.578125 33.589844 L 23.652344 31.785156 C 23.652344 31.785156 21.515625 32.949219 19.285156 32.53125 C 17.050781 32.113281 16.484375 31.429688 15.796875 30.984375 C 15.105469 30.539062 13.34375 28.316406 13.226562 25.984375 L 13.9375 26.632812 Z M 13.601562 20.96875 " fill-opacity="1" fill-rule="nonzero"/></g><g clip-path="url(#e5b2223e50)"><path fill="#ffffff" d="M 26.285156 30.984375 L 30.109375 26.734375 L 28.625 26.847656 C 28.625 26.847656 28.785156 24.382812 27.65625 22.292969 C 26.523438 20.203125 25.449219 19.535156 24.878906 19.066406 C 24.308594 18.59375 22.453125 17.480469 19.683594 17.367188 C 16.917969 17.25 15.308594 18.355469 15.308594 18.355469 L 16.234375 20.167969 C 16.234375 20.167969 18.367188 19.003906 20.601562 19.421875 C 22.832031 19.839844 23.402344 20.515625 24.085938 20.96875 C 24.78125 21.414062 26.542969 23.636719 26.660156 25.96875 L 25.945312 25.316406 Z M 26.285156 30.984375 " fill-opacity="1" fill-rule="nonzero"/></g><g fill="#ffffff" fill-opacity="1"><g transform="translate(41.868621, 28.708425)"><g><path d="M 3.011719 -10.117188 L 0.804688 0 L 3.46875 0 L 4.382812 -4.230469 L 7.636719 -4.230469 L 6.722656 0 L 9.402344 0 L 11.609375 -10.117188 L 8.929688 -10.117188 L 8.0625 -6.132812 L 4.808594 -6.132812 L 5.675781 -10.117188 Z M 3.011719 -10.117188 "/></g></g></g><g fill="#ffffff" fill-opacity="1"><g transform="translate(52.684479, 28.708425)"><g><path d="M 2.980469 -10.117188 L 0.804688 -0.226562 C 2.039062 0.0625 3.300781 0.199219 4.304688 0.199219 C 6.753906 0.199219 9.25 -0.578125 9.25 -3.269531 C 9.25 -4.320312 8.535156 -4.976562 7.683594 -5.15625 C 8.960938 -5.554688 9.933594 -6.207031 9.933594 -7.851562 C 9.933594 -9.433594 8.582031 -10.117188 6.496094 -10.117188 Z M 4.335938 -4.214844 L 5.339844 -4.214844 C 6.085938 -4.214844 6.375 -3.820312 6.375 -3.253906 C 6.375 -2.070312 5.796875 -1.535156 4.609375 -1.535156 C 4.382812 -1.535156 3.957031 -1.550781 3.773438 -1.582031 Z M 5.265625 -8.398438 L 6.207031 -8.398438 C 6.847656 -8.398438 7.121094 -8.109375 7.121094 -7.53125 C 7.121094 -6.359375 6.449219 -5.980469 5.691406 -5.980469 L 4.730469 -5.980469 Z M 5.265625 -8.398438 "/></g></g></g><g fill="#ffffff" fill-opacity="1"><g transform="translate(61.948693, 28.708425)"><g><path d="M 6.953125 -10.300781 C 3.925781 -10.300781 2.097656 -8.582031 1.277344 -5.035156 C 1.109375 -4.304688 1.035156 -3.757812 1.035156 -3.179688 C 1.035156 -0.941406 2.207031 0.199219 4.640625 0.199219 C 7.683594 0.199219 9.507812 -1.429688 10.300781 -5.035156 C 10.46875 -5.8125 10.542969 -6.328125 10.542969 -6.953125 C 10.542969 -9.160156 9.339844 -10.300781 6.953125 -10.300781 Z M 6.558594 -8.457031 C 7.378906 -8.457031 7.757812 -8.015625 7.757812 -6.816406 C 7.757812 -6.34375 7.683594 -5.765625 7.53125 -5.050781 C 6.96875 -2.480469 6.207031 -1.644531 5.066406 -1.644531 C 4.214844 -1.644531 3.820312 -2.070312 3.820312 -3.269531 C 3.820312 -3.742188 3.910156 -4.335938 4.0625 -5.050781 C 4.578125 -7.484375 5.402344 -8.457031 6.558594 -8.457031 Z M 6.558594 -8.457031 "/></g></g></g><g fill="#ffffff" fill-opacity="1"><g transform="translate(71.943094, 28.708425)"><g/></g></g><g fill="#ffffff" fill-opacity="1"><g transform="translate(76.141652, 28.708425)"><g><path d="M 8.015625 -3.042969 L 10.710938 -6.175781 L 9.339844 0 L 12.019531 0 L 14.226562 -10.117188 L 11.410156 -10.117188 L 7.453125 -5.492188 L 5.476562 -10.117188 L 3.011719 -10.117188 L 0.804688 0 L 3.46875 0 L 4.792969 -6.160156 L 6.101562 -3.042969 Z M 8.015625 -3.042969 "/></g></g></g><g fill="#ffffff" fill-opacity="1"><g transform="translate(89.574001, 28.708425)"><g><path d="M 3.878906 -3.378906 L 6.648438 -3.378906 L 5.917969 0 L 8.609375 0 L 10.027344 -6.570312 C 10.117188 -7 10.164062 -7.394531 10.164062 -7.773438 C 10.164062 -9.339844 9.1875 -10.300781 6.695312 -10.300781 C 3.695312 -10.300781 2.433594 -8.855469 1.949219 -6.570312 L 0.546875 0 L 3.148438 0 Z M 4.273438 -5.171875 L 4.625 -6.753906 C 4.867188 -7.867188 5.429688 -8.457031 6.375 -8.457031 C 7.148438 -8.457031 7.453125 -8.078125 7.453125 -7.332031 C 7.453125 -7.164062 7.425781 -6.96875 7.378906 -6.753906 L 7.042969 -5.171875 Z M 4.273438 -5.171875 "/></g></g></g><g fill="#ffffff" fill-opacity="1"><g transform="translate(99.203305, 28.708425)"><g><path d="M 3.878906 -5.113281 L -0.351562 0 L 2.449219 0 L 4.960938 -3.210938 L 6.070312 0 L 8.945312 0 L 6.890625 -5.082031 L 11.152344 -10.117188 L 8.304688 -10.117188 L 5.8125 -6.96875 L 4.730469 -10.117188 L 1.902344 -10.117188 Z M 3.878906 -5.113281 "/></g></g></g><g fill="#ffffff" fill-opacity="1"><g transform="translate(108.072005, 28.708425)"><g/></g></g><g fill="#ffffff" fill-opacity="1"><g transform="translate(112.270563, 28.708425)"><g><path d="M 10.480469 0 C 12.308594 -2.722656 13.785156 -6.085938 15.273438 -10.117188 L 12.71875 -10.117188 C 11.972656 -7.894531 10.878906 -5.128906 9.796875 -3.210938 L 9.355469 -8.335938 L 6.890625 -8.335938 L 4.425781 -3.210938 L 4.441406 -10.117188 L 1.824219 -10.117188 L 2.113281 0 L 4.808594 0 L 7.53125 -5.277344 L 7.941406 0 Z M 10.480469 0 "/></g></g></g><g fill="#ffffff" fill-opacity="1"><g transform="translate(125.642064, 28.708425)"><g><path d="M 3.878906 -3.378906 L 6.648438 -3.378906 L 5.917969 0 L 8.609375 0 L 10.027344 -6.570312 C 10.117188 -7 10.164062 -7.394531 10.164062 -7.773438 C 10.164062 -9.339844 9.1875 -10.300781 6.695312 -10.300781 C 3.695312 -10.300781 2.433594 -8.855469 1.949219 -6.570312 L 0.546875 0 L 3.148438 0 Z M 4.273438 -5.171875 L 4.625 -6.753906 C 4.867188 -7.867188 5.429688 -8.457031 6.375 -8.457031 C 7.148438 -8.457031 7.453125 -8.078125 7.453125 -7.332031 C 7.453125 -7.164062 7.425781 -6.96875 7.378906 -6.753906 L 7.042969 -5.171875 Z M 4.273438 -5.171875 "/></g></g></g><g fill="#ffffff" fill-opacity="1"><g transform="translate(135.271363, 28.708425)"><g><path d="M 1.992188 -10.117188 L 1.613281 -8.320312 L 4.457031 -8.320312 L 2.648438 0 L 5.308594 0 L 7.121094 -8.320312 L 9.964844 -8.320312 L 10.359375 -10.117188 Z M 1.992188 -10.117188 "/></g></g></g><g fill="#ffffff" fill-opacity="1"><g transform="translate(143.820606, 28.708425)"><g><path d="M 9.613281 -9.980469 C 9.082031 -10.117188 8.183594 -10.300781 7.242188 -10.300781 C 4.109375 -10.300781 2.144531 -8.929688 1.277344 -5.113281 C 1.09375 -4.320312 1.035156 -3.863281 1.035156 -3.242188 C 1.035156 -0.835938 2.28125 0.199219 4.777344 0.199219 C 5.734375 0.199219 6.9375 -0.015625 7.589844 -0.226562 L 7.804688 -2.070312 C 7.121094 -1.902344 6.070312 -1.644531 5.355469 -1.644531 C 4.078125 -1.644531 3.820312 -2.054688 3.820312 -3.378906 C 3.820312 -3.832031 3.910156 -4.410156 4.046875 -5.113281 C 4.550781 -7.53125 5.417969 -8.457031 6.953125 -8.457031 C 7.636719 -8.457031 8.625 -8.292969 9.144531 -8.125 Z M 9.613281 -9.980469 "/></g></g></g><g fill="#ffffff" fill-opacity="1"><g transform="translate(152.080811, 28.708425)"><g><path d="M 3.011719 -10.117188 L 0.804688 0 L 3.46875 0 L 4.382812 -4.230469 L 7.636719 -4.230469 L 6.722656 0 L 9.402344 0 L 11.609375 -10.117188 L 8.929688 -10.117188 L 8.0625 -6.132812 L 4.808594 -6.132812 L 5.675781 -10.117188 Z M 3.011719 -10.117188 "/></g></g></g><g fill="#ffffff" fill-opacity="1"><g transform="translate(162.896669, 28.708425)"><g/></g></g><g fill="#ffffff" fill-opacity="1"><g transform="translate(167.095228, 28.708425)"><g><path d="M 5.277344 -8.320312 L 6.023438 -8.320312 C 6.785156 -8.320312 7.148438 -8.125 7.148438 -7.378906 C 7.148438 -5.855469 6.34375 -5.203125 5.308594 -5.203125 C 5.097656 -5.203125 4.851562 -5.234375 4.640625 -5.265625 Z M 3.011719 -10.117188 L 0.804688 0 L 3.46875 0 L 4.214844 -3.453125 C 4.578125 -3.394531 4.929688 -3.363281 5.308594 -3.363281 C 7.988281 -3.363281 9.8125 -4.960938 9.8125 -7.5625 C 9.8125 -9.417969 8.65625 -10.117188 6.40625 -10.117188 Z M 3.011719 -10.117188 "/></g></g></g><g fill="#ffffff" fill-opacity="1"><g transform="translate(176.085624, 28.708425)"><g><path d="M 3.878906 -3.378906 L 6.648438 -3.378906 L 5.917969 0 L 8.609375 0 L 10.027344 -6.570312 C 10.117188 -7 10.164062 -7.394531 10.164062 -7.773438 C 10.164062 -9.339844 9.1875 -10.300781 6.695312 -10.300781 C 3.695312 -10.300781 2.433594 -8.855469 1.949219 -6.570312 L 0.546875 0 L 3.148438 0 Z M 4.273438 -5.171875 L 4.625 -6.753906 C 4.867188 -7.867188 5.429688 -8.457031 6.375 -8.457031 C 7.148438 -8.457031 7.453125 -8.078125 7.453125 -7.332031 C 7.453125 -7.164062 7.425781 -6.96875 7.378906 -6.753906 L 7.042969 -5.171875 Z M 4.273438 -5.171875 "/></g></g></g><g fill="#ffffff" fill-opacity="1"><g transform="translate(185.714923, 28.708425)"><g><path d="M 3.011719 -10.117188 L 0.804688 0 L 3.46875 0 L 4.214844 -3.453125 C 4.457031 -3.40625 4.761719 -3.378906 4.960938 -3.378906 C 5.660156 -3.363281 5.828125 -3.210938 5.902344 -1.992188 L 6.039062 0 L 8.808594 0 L 8.625 -2.539062 C 8.550781 -3.574219 8.167969 -4.078125 7.410156 -4.367188 C 8.414062 -4.699219 9.8125 -5.371094 9.8125 -7.621094 C 9.8125 -9.371094 8.65625 -10.117188 6.40625 -10.117188 Z M 5.277344 -8.320312 L 6.023438 -8.320312 C 6.785156 -8.320312 7.148438 -8.125 7.148438 -7.394531 C 7.148438 -5.855469 6.34375 -5.203125 5.308594 -5.203125 C 5.097656 -5.203125 4.808594 -5.234375 4.640625 -5.265625 Z M 5.277344 -8.320312 "/></g></g></g><g fill="#ffffff" fill-opacity="1"><g transform="translate(194.933499, 28.708425)"><g><path d="M 1.992188 -10.117188 L 1.613281 -8.320312 L 4.457031 -8.320312 L 2.648438 0 L 5.308594 0 L 7.121094 -8.320312 L 9.964844 -8.320312 L 10.359375 -10.117188 Z M 1.992188 -10.117188 "/></g></g></g><g fill="#ffffff" fill-opacity="1"><g transform="translate(203.482742, 28.708425)"><g><path d="M 2.9375 0 L 5.539062 0 L 6.328125 -3.53125 C 8.457031 -5.234375 9.765625 -7.925781 10.800781 -10.117188 L 8.261719 -10.117188 C 7.589844 -8.503906 6.648438 -6.859375 5.582031 -5.703125 L 4.273438 -10.117188 L 1.566406 -10.117188 L 3.726562 -3.53125 Z M 2.9375 0 "/></g></g></g></svg>